<svg xmlns="http://www.w3.org/2000/svg" width="181.71" height="201.692" viewBox="0 0 181.71 201.692"><path d="M454.091,470.666v-80.45a28.125,28.125,0,0,0-28.125-28.125H352.707a.185.185,0,0,0-.134.313l28.157,29.312a7.093,7.093,0,0,1-.052,9.881l-12.341,12.577a7.175,7.175,0,0,1-10.466-.237l-60.034-67a.185.185,0,0,1,0-.246l60.74-68.71a7.369,7.369,0,0,1,9.806-1.113l14.863,10.629a7.184,7.184,0,0,1,.641,11.172l-35.026,31.69a.185.185,0,0,0,.126.322l82.444-.629a47.706,47.706,0,0,1,48.07,47.7V471.37a5.812,5.812,0,0,1-5.812,5.812H460.607A6.516,6.516,0,0,1,454.091,470.666Z" transform="translate(-297.79 -275.49)"/></svg>