<svg xmlns="http://www.w3.org/2000/svg" width="60.467" height="55.802" viewBox="0 0 60.467 55.802"><path d="M423.984,305.6h0c.008-.19.015-.381.015-.573a14.605,14.605,0,0,0-14.515-14.383,14.941,14.941,0,0,0-13.2,8.58h0a14.941,14.941,0,0,0-13.2-8.58,14.605,14.605,0,0,0-14.515,14.383c0,.192.007.382.015.573h0s-.819,9.153,9.366,19.146c4.631,4.64,9.81,9.05,18.335,15.979,8.525-6.929,13.7-11.339,18.335-15.979C424.8,314.754,423.984,305.6,423.984,305.6Z" transform="translate(-366.049 -288.145)" fill="none" stroke="#808184" stroke-width="5"/></svg>