<svg xmlns="http://www.w3.org/2000/svg" width="86.161" height="65.942" viewBox="0 0 86.161 65.942"><g transform="translate(-94.074 -65.035)"><path d="M168.062,104.513V88.241c0-3.142-5.947-5.689-13.282-5.689h-34.6c-.049,0-.088.016-.088.037s.009.019.024.026l13.3,5.929c1.254.559,1.244,1.445-.025,2l-5.828,2.544a6.962,6.962,0,0,1-4.792.019c-.052-.022-.1-.044-.151-.067L94.27,79.486c-.03-.014-.03-.035,0-.049l28.685-13.9a7.155,7.155,0,0,1,4.631-.226l7.019,2.15c1.524.467,1.876,1.375.787,2.028a3.306,3.306,0,0,1-.484.232l-16.542,6.41c-.036.014-.038.038-.006.053a.162.162,0,0,0,.066.012l38.935-.127c12.442-.041,22.605,4.247,22.7,9.576v19.009c0,.649-1.229,1.175-2.745,1.175h-6.178C169.44,105.831,168.062,105.241,168.062,104.513Z" fill="#c5c6c6"/><path d="M106.075,92.1l.23,16.271c.044,3.142,6.026,5.6,13.361,5.5l34.593-.488c.049,0,.088-.018.087-.038s-.008-.019-.024-.026l-13.38-5.741c-1.262-.542-1.264-1.427,0-2l5.791-2.626a6.97,6.97,0,0,1,4.791-.087c.053.021.1.043.152.066l28.54,13.151c.029.014.03.035,0,.05l-28.486,14.3a7.156,7.156,0,0,1-4.627.29l-7.049-2.051c-1.531-.445-1.9-1.348-.815-2.016a3.08,3.08,0,0,1,.481-.239l16.449-6.643c.035-.014.038-.038.005-.053a.18.18,0,0,0-.065-.011l-38.93.676c-12.44.216-22.663-3.928-22.833-9.255l0-.073-.267-18.934c-.009-.649,1.213-1.193,2.728-1.214h0l6.178-.087C104.679,90.8,106.065,91.373,106.075,92.1Z" fill="#c5c6c6"/></g></svg>